<svg width="420" height="100" viewBox="0 0 420 100" fill="none" xmlns="http://www.w3.org/2000/svg">
  <rect width="420" height="100" rx="18" fill="white"/>
  <path d="M83 17H112L82 50L112 83H83L53 50L83 17Z" fill="#0B1728"/>
  <path d="M123 10H155L115 50L155 90H123L83 50L123 10Z" fill="#49C5FF"/>
  <path d="M150 12H180L150 44H120L150 12Z" fill="#EB4D9C"/>
  <path d="M150 56H180L150 88H120L150 56Z" fill="#FFD83B"/>
  <path d="M186 26H230V37H199V46H225V56H199V66H231V77H186V26Z" fill="#111111"/>
  <path d="M236 26H273C288 26 298 35 298 49C298 63 288 72 273 72H249V77H236V26ZM270 61C279 61 285 57 285 49C285 41 279 37 270 37H249V61H270Z" fill="#111111"/>
  <path d="M306 26H319V44H326L347 26H364L336 48L366 77H349L326 55H319V77H306V26Z" fill="#111111"/>
  <path d="M368 26H411V37H381V46H406V56H381V66H412V77H368V26Z" fill="#111111"/>
</svg>
