<svg width="420" height="140" viewBox="0 0 420 140" fill="none" xmlns="http://www.w3.org/2000/svg">
  <defs>
    <linearGradient id="logo-blue-footer" x1="18" y1="88" x2="146" y2="6" gradientUnits="userSpaceOnUse">
      <stop stop-color="#11A7F6"/>
      <stop offset="1" stop-color="#42C6FF"/>
    </linearGradient>
    <linearGradient id="logo-pink-footer" x1="20" y1="30" x2="103" y2="106" gradientUnits="userSpaceOnUse">
      <stop stop-color="#FF3C9A"/>
      <stop offset="1" stop-color="#FF0076"/>
    </linearGradient>
    <linearGradient id="logo-yellow-footer" x1="96" y1="92" x2="148" y2="122" gradientUnits="userSpaceOnUse">
      <stop stop-color="#FFE93A"/>
      <stop offset="1" stop-color="#FFCC00"/>
    </linearGradient>
    <filter id="footer-word-shadow" x="0" y="0" width="420" height="140" filterUnits="userSpaceOnUse">
      <feDropShadow dx="0" dy="3" stdDeviation="3" flood-color="#000000" flood-opacity="0.28"/>
    </filter>
  </defs>

  <g transform="translate(0 6)" filter="url(#footer-word-shadow)">
    <text
      x="4"
      y="74"
      fill="#F8FAFC"
      font-family="Arial Black, Arial, Helvetica, sans-serif"
      font-size="48"
      font-style="italic"
      font-weight="900"
      letter-spacing="-2.8"
    >
      E
    </text>

    <g transform="translate(32 6)">
      <path d="M0 86H36L146 -24H110L0 86Z" fill="url(#logo-blue-footer)"/>
      <path d="M18 34H81C101 46 115 61 120 78C124 93 120 108 107 122L92 138H54L75 117C87 106 92 95 91 82C89 67 78 53 58 40L18 34Z" fill="url(#logo-pink-footer)"/>
      <path d="M91 89L124 122H166L133 89H91Z" fill="url(#logo-yellow-footer)"/>
    </g>

    <text
      x="168"
      y="78"
      fill="#F8FAFC"
      font-family="Arial Black, Arial, Helvetica, sans-serif"
      font-size="58"
      font-style="italic"
      font-weight="900"
      letter-spacing="-3.2"
    >
      PRESS
    </text>

    <text
      x="246"
      y="111"
      fill="#DCEBFF"
      font-family="Arial, Helvetica, sans-serif"
      font-size="15"
      font-weight="900"
      letter-spacing="3.2"
    >
      PRINTER
    </text>
  </g>
</svg>
