<svg width="420" height="100" viewBox="0 0 420 100" fill="none" xmlns="http://www.w3.org/2000/svg">
  <g transform="translate(8 6)">
    <text
      x="0"
      y="58"
      fill="#111111"
      font-family="Arial, Helvetica, sans-serif"
      font-size="48"
      font-style="italic"
      font-weight="900"
      letter-spacing="-2"
    >
      E
    </text>

    <g transform="translate(46 2)">
      <polygon points="0,68 18,68 52,34 34,34" fill="#49C5FF"/>
      <polygon points="34,34 52,34 86,0 68,0" fill="#49C5FF"/>
      <polygon points="0,0 18,0 52,34 34,34" fill="#49C5FF"/>
      <polygon points="34,34 52,34 86,68 68,68" fill="#49C5FF"/>

      <polygon points="6,0 24,0 47,23 29,23" fill="#E94F9B"/>
      <polygon points="39,46 57,46 80,69 62,69" fill="#FFD73A"/>

      <polygon points="27,34 43,18 59,34 43,50" fill="white"/>
    </g>

    <text
      x="120"
      y="58"
      fill="#111111"
      font-family="Arial, Helvetica, sans-serif"
      font-size="48"
      font-style="italic"
      font-weight="900"
      letter-spacing="-2"
    >
      PRESS
    </text>
  </g>
</svg>
