<svg xmlns="http://www.w3.org/2000/svg" width="1000" height="640" viewBox="0 0 1000 640" fill="none">
  <defs>
    <filter id="soft-shadow" x="-20%" y="-20%" width="140%" height="150%" color-interpolation-filters="sRGB">
      <feDropShadow dx="0" dy="28" stdDeviation="26" flood-color="#0f172a" flood-opacity="0.22"/>
    </filter>
    <filter id="card-shadow" x="-20%" y="-20%" width="140%" height="150%" color-interpolation-filters="sRGB">
      <feDropShadow dx="0" dy="18" stdDeviation="18" flood-color="#0f172a" flood-opacity="0.28"/>
    </filter>
    <linearGradient id="black-card" x1="282" y1="246" x2="849" y2="490" gradientUnits="userSpaceOnUse">
      <stop stop-color="#111827"/>
      <stop offset="0.55" stop-color="#070A10"/>
      <stop offset="1" stop-color="#181C24"/>
    </linearGradient>
    <linearGradient id="gold-edge" x1="134" y1="436" x2="781" y2="436" gradientUnits="userSpaceOnUse">
      <stop stop-color="#6B4A10"/>
      <stop offset="0.18" stop-color="#F8D878"/>
      <stop offset="0.47" stop-color="#A9741B"/>
      <stop offset="0.75" stop-color="#F9DE86"/>
      <stop offset="1" stop-color="#7B5313"/>
    </linearGradient>
    <linearGradient id="white-card" x1="189" y1="146" x2="796" y2="347" gradientUnits="userSpaceOnUse">
      <stop stop-color="#FFFFFF"/>
      <stop offset="0.62" stop-color="#F8FAFC"/>
      <stop offset="1" stop-color="#E5E7EB"/>
    </linearGradient>
  </defs>

  <g filter="url(#soft-shadow)">
    <g transform="translate(134 118) rotate(-4 360 160)">
      <rect x="28" y="210" width="614" height="18" rx="9" fill="url(#gold-edge)"/>
      <rect x="24" y="196" width="620" height="16" rx="8" fill="#151515"/>
      <rect x="20" y="182" width="626" height="16" rx="8" fill="url(#gold-edge)"/>
      <rect x="16" y="168" width="632" height="16" rx="8" fill="#171717"/>
      <rect x="12" y="154" width="638" height="16" rx="8" fill="url(#gold-edge)"/>
      <rect x="8" y="140" width="644" height="16" rx="8" fill="#191919"/>
      <rect x="4" y="126" width="650" height="16" rx="8" fill="url(#gold-edge)"/>
      <rect x="0" y="0" width="666" height="218" rx="28" fill="url(#white-card)"/>
      <rect x="0.75" y="0.75" width="664.5" height="216.5" rx="27.25" stroke="#D7B55B" stroke-width="1.5"/>
      <path d="M83 57H221" stroke="#C49A2C" stroke-width="3" stroke-linecap="round"/>
      <path d="M88 92H406" stroke="#CBD5E1" stroke-width="9" stroke-linecap="round"/>
      <path d="M88 125H354" stroke="#CBD5E1" stroke-width="9" stroke-linecap="round"/>
      <path d="M88 158H275" stroke="#CBD5E1" stroke-width="9" stroke-linecap="round"/>
      <path d="M548 44C584 63 607 96 610 132" stroke="#D3A533" stroke-width="4" stroke-linecap="round"/>
      <path d="M573 46C599 69 613 99 612 132" stroke="#D3A533" stroke-width="2" stroke-linecap="round"/>
      <circle cx="505" cy="59" r="6" fill="#D3A533"/>
      <circle cx="531" cy="77" r="4" fill="#D3A533"/>
      <circle cx="555" cy="99" r="3" fill="#D3A533"/>
    </g>

    <g transform="translate(278 236) rotate(3 310 150)" filter="url(#card-shadow)">
      <rect x="0" y="0" width="662" height="284" rx="30" fill="url(#black-card)"/>
      <rect x="1" y="1" width="660" height="282" rx="29" stroke="#F4D778" stroke-opacity="0.52" stroke-width="2"/>
      <path d="M101 210C218 157 343 136 474 145C528 149 581 158 632 174" stroke="#D4AF37" stroke-width="4" stroke-linecap="round"/>
      <path d="M123 232C248 177 392 162 552 190" stroke="#2DBFE8" stroke-width="5" stroke-linecap="round"/>
      <path d="M146 245C270 196 401 184 531 207" stroke="#EC1C79" stroke-width="5" stroke-linecap="round"/>
      <path d="M110 230L178 192L151 263L74 270L110 230Z" fill="#D4AF37"/>
      <path d="M319 79L381 100L392 165L338 204L278 179L268 116L319 79Z" stroke="#F4D778" stroke-width="8" stroke-linejoin="round"/>
      <g fill="#F4D778">
        <circle cx="70" cy="192" r="4"/>
        <circle cx="96" cy="198" r="4"/>
        <circle cx="122" cy="205" r="4"/>
        <circle cx="148" cy="213" r="4"/>
        <circle cx="587" cy="119" r="4"/>
        <circle cx="612" cy="127" r="4"/>
        <circle cx="632" cy="144" r="4"/>
        <circle cx="563" cy="143" r="4"/>
        <circle cx="589" cy="153" r="4"/>
        <circle cx="614" cy="166" r="4"/>
      </g>
      <path d="M60 42H174" stroke="#F4D778" stroke-width="3" stroke-linecap="round"/>
      <path d="M60 62H132" stroke="#F4D778" stroke-opacity="0.55" stroke-width="2" stroke-linecap="round"/>
    </g>
  </g>
</svg>
