<svg xmlns="http://www.w3.org/2000/svg" width="920" height="760" viewBox="0 0 920 760" fill="none">
  <defs>
    <linearGradient id="navy" x1="170" y1="80" x2="690" y2="670" gradientUnits="userSpaceOnUse">
      <stop stop-color="#17263a"/>
      <stop offset="0.55" stop-color="#07111f"/>
      <stop offset="1" stop-color="#12243a"/>
    </linearGradient>
    <linearGradient id="gold" x1="130" y1="80" x2="500" y2="680" gradientUnits="userSpaceOnUse">
      <stop stop-color="#ffd449"/>
      <stop offset="0.55" stop-color="#f4b51d"/>
      <stop offset="1" stop-color="#b87608"/>
    </linearGradient>
    <linearGradient id="cyan" x1="550" y1="330" x2="805" y2="700" gradientUnits="userSpaceOnUse">
      <stop stop-color="#46d7ff"/>
      <stop offset="1" stop-color="#1162b3"/>
    </linearGradient>
    <filter id="product-shadow" x="-15%" y="-15%" width="130%" height="135%" color-interpolation-filters="sRGB">
      <feDropShadow dx="0" dy="24" stdDeviation="22" flood-color="#020617" flood-opacity="0.28"/>
    </filter>
    <filter id="soft-shadow" x="-20%" y="-20%" width="140%" height="140%" color-interpolation-filters="sRGB">
      <feDropShadow dx="0" dy="18" stdDeviation="18" flood-color="#020617" flood-opacity="0.2"/>
    </filter>
  </defs>

  <ellipse cx="456" cy="710" rx="330" ry="34" fill="#020617" opacity="0.16"/>

  <g filter="url(#product-shadow)">
    <g transform="translate(108 38)">
      <rect x="7" y="6" width="382" height="24" rx="12" fill="#d8dee6"/>
      <rect x="0" y="20" width="396" height="18" rx="9" fill="#f8fafc"/>
      <rect x="16" y="35" width="366" height="610" rx="10" fill="url(#navy)"/>
      <path d="M16 35H382V168L16 444V35Z" fill="url(#gold)"/>
      <path d="M16 215C130 151 230 118 382 112V645H16V215Z" fill="#0b2037" opacity="0.72"/>
      <path d="M16 520C124 486 225 449 382 332V645H16V520Z" fill="url(#gold)"/>
      <path d="M68 238H252" stroke="#f8fafc" stroke-width="18" stroke-linecap="round"/>
      <path d="M68 278H148" stroke="#ffd449" stroke-width="7" stroke-linecap="round"/>
      <text x="67" y="234" fill="#f8fafc" font-family="Arial, Helvetica, sans-serif" font-size="58" font-weight="800">Pendones</text>
      <circle cx="251" cy="417" r="116" fill="#f8fafc"/>
      <path d="M146 436L268 288L374 461V645H16V580C59 554 103 508 146 436Z" fill="#d9dde3"/>
      <path d="M146 436L260 296L226 481L374 461L382 645H16V580C59 554 103 508 146 436Z" fill="#6b7280" opacity="0.55"/>
      <path d="M262 300L297 454L229 482L262 300Z" fill="#111827" opacity="0.52"/>
      <rect x="-12" y="640" width="420" height="26" rx="13" fill="#c7cdd5"/>
      <rect x="4" y="660" width="386" height="14" rx="7" fill="#f8fafc"/>
      <rect x="84" y="674" width="58" height="10" rx="5" fill="#9aa3af"/>
      <rect x="250" y="674" width="58" height="10" rx="5" fill="#9aa3af"/>
    </g>
  </g>

  <g filter="url(#soft-shadow)" transform="translate(512 236) rotate(3 171 225)">
    <rect x="0" y="0" width="342" height="450" rx="8" fill="url(#navy)"/>
    <path d="M0 287C88 224 181 195 342 186V450H0V287Z" fill="url(#cyan)"/>
    <path d="M124 450C189 316 257 202 342 110V450H124Z" fill="#f8fafc"/>
    <path d="M169 333L254 234L342 321V450H124L169 333Z" fill="#d7dce3"/>
    <path d="M169 333L251 239L232 366L342 321V450H124L169 333Z" fill="#111827" opacity="0.45"/>
    <text x="54" y="112" fill="#f8fafc" font-family="Arial, Helvetica, sans-serif" font-size="64" font-weight="800">Afiches</text>
    <path d="M56 145H133" stroke="#38bdf8" stroke-width="8" stroke-linecap="round"/>
    <g opacity="0.45" fill="#38bdf8">
      <circle cx="54" cy="245" r="2"/>
      <circle cx="76" cy="245" r="2"/>
      <circle cx="98" cy="245" r="2"/>
      <circle cx="54" cy="267" r="2"/>
      <circle cx="76" cy="267" r="2"/>
      <circle cx="98" cy="267" r="2"/>
      <circle cx="54" cy="289" r="2"/>
      <circle cx="76" cy="289" r="2"/>
      <circle cx="98" cy="289" r="2"/>
    </g>
  </g>
</svg>
